<svg xmlns="http://www.w3.org/2000/svg" width="20" height="20" viewBox="0 0 20 20" fill="none">
  <path d="M16.8692 10.3901C16.8769 10.3823 16.8847 10.3707 16.8885 10.3629C16.8963 10.3552 16.9002 10.3435 16.9079 10.3319C16.9118 10.3241 16.9196 10.3164 16.9234 10.3047C16.9273 10.2931 16.9351 10.2853 16.9389 10.2737C16.9428 10.2659 16.9467 10.2543 16.9506 10.2465C16.9544 10.2349 16.9583 10.2271 16.9622 10.2155C16.9661 10.2039 16.97 10.1961 16.9738 10.1845C16.9777 10.1728 16.9777 10.1651 16.9816 10.1534C16.9855 10.1418 16.9855 10.1301 16.9893 10.1224C16.9932 10.1107 16.9932 10.0991 16.9932 10.0875C16.9932 10.0797 16.9971 10.0681 16.9971 10.0603C17.001 10.0176 17.001 9.97493 16.9971 9.92837C16.9971 9.91673 16.9932 9.90897 16.9932 9.9012C16.9932 9.88956 16.9893 9.87792 16.9893 9.86628C16.9855 9.85464 16.9855 9.843 16.9816 9.83524C16.9777 9.8236 16.9777 9.81584 16.9738 9.8042C16.97 9.79256 16.9661 9.7848 16.9622 9.77316C16.9583 9.76152 16.9544 9.75376 16.9506 9.74212C16.9467 9.73436 16.9428 9.72272 16.9389 9.71496C16.9351 9.70332 16.9312 9.69556 16.9234 9.68392C16.9196 9.67616 16.9118 9.6684 16.9079 9.65676C16.9002 9.64512 16.8963 9.63736 16.8885 9.62572C16.8808 9.61796 16.8769 9.60632 16.8692 9.59855C16.8614 9.59079 16.8575 9.58303 16.8498 9.57527C16.8382 9.55975 16.8226 9.54423 16.811 9.52871L14.5509 7.26654C14.423 7.1385 14.2524 7.07254 14.0857 7.07254C13.919 7.07254 13.7484 7.1385 13.6205 7.26654C13.3646 7.52264 13.3646 7.94168 13.6205 8.19777L14.7486 9.33853L7.71634 9.33853C7.35194 9.33853 7.05731 9.63342 7.05731 9.99815C7.05731 10.3629 7.35194 10.6578 7.71634 10.6578L14.7486 10.6578L13.6166 11.7908C13.3607 12.0469 13.3607 12.4659 13.6166 12.722C13.8725 12.9781 14.2911 12.9781 14.547 12.722L16.8071 10.4638L16.811 10.4599C16.8265 10.4444 16.8381 10.4289 16.8498 10.4134C16.8575 10.4095 16.8614 10.4017 16.8692 10.3901L16.8692 10.3901Z" fill="white"/>
  <path d="M13.1567 13.8317C12.7923 13.8317 12.4977 14.1266 12.4977 14.4914L12.4977 16.7728C12.4977 17.2656 12.0945 17.6807 11.6022 17.6807L5.19797 17.6807C4.70563 17.6807 4.31797 17.2617 4.31797 16.7728L4.31797 3.31926C4.31797 2.76697 4.76569 2.31926 5.31797 2.31926L11.6022 2.31926C12.0945 2.31926 12.4977 2.73832 12.4977 3.22721L12.4977 5.50864C12.4977 5.87337 12.7923 6.16826 13.1567 6.16826C13.5211 6.16826 13.8158 5.87337 13.8158 5.50864L13.8158 3.22721C13.8158 2.00885 12.8195 1 11.6023 1L5.19803 1C3.98077 1 3.00003 2.00883 3.00003 3.2272L3.00003 16.7728C3.00003 17.9912 3.98081 19 5.19803 19L11.6023 19C12.8195 19 13.8158 17.9912 13.8158 16.7728L13.8158 14.4914C13.8158 14.1266 13.5211 13.8317 13.1567 13.8317Z" fill="white"/>
</svg>