<svg xmlns="http://www.w3.org/2000/svg" width="14" height="10" viewBox="0 0 14 10" fill="none">
  <path d="M2.10147 1C2.10147 1.55234 1.6311 2 1.05074 2C0.470373 2 0 1.55234 0 1C0 0.44766 0.470373 0 1.05074 0C1.6311 0 2.10147 0.44766 2.10147 1Z" fill="white"/>
  <path d="M13.25 1.75H4.95294C4.53873 1.75 4.20294 1.41421 4.20294 1C4.20294 0.585787 4.53873 0.25 4.95294 0.25H13.25C13.6642 0.25 14 0.585787 14 1C14 1.41421 13.6642 1.75 13.25 1.75Z" fill="white"/>
  <path d="M2.10147 5C2.10147 5.55234 1.6311 6 1.05074 6C0.470373 6 0 5.55234 0 5C0 4.44766 0.470373 4 1.05074 4C1.6311 4 2.10147 4.44766 2.10147 5Z" fill="white"/>
  <path d="M13.25 5.75H4.95294C4.53873 5.75 4.20294 5.41421 4.20294 5C4.20294 4.58579 4.53873 4.25 4.95294 4.25H13.25C13.6642 4.25 14 4.58579 14 5C14 5.41421 13.6642 5.75 13.25 5.75Z" fill="white"/>
  <path d="M2.10147 9C2.10147 9.55234 1.6311 10 1.05074 10C0.470373 10 0 9.55234 0 9C0 8.44766 0.470373 8 1.05074 8C1.6311 8 2.10147 8.44766 2.10147 9Z" fill="white"/>
  <path d="M13.25 9.75H4.95294C4.53873 9.75 4.20294 9.41421 4.20294 9C4.20294 8.58579 4.53873 8.25 4.95294 8.25H13.25C13.6642 8.25 14 8.58579 14 9C14 9.41421 13.6642 9.75 13.25 9.75Z" fill="white"/>
</svg>