<svg xmlns="http://www.w3.org/2000/svg" width="16" height="16" viewBox="0 0 16 16" fill="none">
  <path d="M8 15C6.14332 15 4.3628 14.2623 3.0503 12.9497C1.7378 11.6371 1 9.85654 1 8C1 6.14346 1.73773 4.3628 3.0503 3.0503C4.36287 1.7378 6.14346 1 8 1C9.85654 1 11.6372 1.73773 12.9497 3.0503C14.2622 4.36287 15 6.14346 15 8C15 9.85654 14.2623 11.6372 12.9497 12.9497C11.6371 14.2622 9.85654 15 8 15ZM8 1.58352C6.29816 1.58352 4.66632 2.25945 3.4626 3.4626C2.25947 4.66628 1.58352 6.29816 1.58352 8C1.58352 9.70184 2.25945 11.3337 3.4626 12.5374C4.66628 13.7405 6.29816 14.4165 8 14.4165C9.70184 14.4165 11.3337 13.7405 12.5374 12.5374C13.7405 11.3337 14.4165 9.70184 14.4165 8C14.4165 6.29816 13.7405 4.66632 12.5374 3.4626C11.3337 2.25947 9.70184 1.58352 8 1.58352Z" fill="white" stroke="white" stroke-width="0.4"/>
  <path d="M5.73105 10.561C5.61402 10.5594 5.50957 10.4883 5.46528 10.38C5.42098 10.2723 5.44504 10.1481 5.52653 10.065L10.065 5.52649C10.1793 5.41219 10.3647 5.41219 10.479 5.52649C10.5933 5.64079 10.5933 5.82672 10.479 5.94101L5.93505 10.4735C5.88145 10.5282 5.80762 10.5599 5.73107 10.561L5.73105 10.561Z" fill="white" stroke="white" stroke-width="0.4"/>
  <path d="M10.269 10.561C10.1925 10.5599 10.1186 10.5282 10.065 10.4735L5.52652 5.93501C5.41222 5.82071 5.41222 5.63532 5.52652 5.52103C5.64082 5.40673 5.82675 5.40673 5.94104 5.52103L10.4796 10.0595L10.479 10.059C10.561 10.1427 10.5851 10.2663 10.5408 10.3745C10.496 10.4823 10.3915 10.5534 10.275 10.555L10.269 10.561Z" fill="white" stroke="white" stroke-width="0.4"/>
</svg>