<svg xmlns="http://www.w3.org/2000/svg" width="20" height="20" viewBox="0 0 20 20" fill="none">
  <path d="M18.8651 5.63242C18.7423 5.47963 18.5563 5.39326 18.3623 5.39824H5.1749L5.00702 3.95247C4.91202 3.10294 4.26834 2.42366 3.43547 2.29494L1.77957 2.0184C1.61005 1.97605 1.42988 2.00761 1.28411 2.10477C1.13752 2.20193 1.03842 2.35639 1.00894 2.5316C0.979462 2.70599 1.02368 2.88537 1.13015 3.0257C1.23579 3.16604 1.39548 3.25572 1.56911 3.27234L3.2463 3.54888C3.5182 3.59621 3.7254 3.82293 3.74995 4.10195L5.02914 14.8593C5.14461 15.8085 5.9308 16.5243 6.8734 16.5385C7.15595 17.4104 7.95933 18 8.86507 18C9.77082 18 10.5742 17.4104 10.8567 16.5385H12.6601C13.0024 17.5159 13.9966 18.0947 15.0023 17.9012C16.0079 17.7085 16.7237 16.8009 16.6901 15.7636C16.6557 14.7264 15.881 13.8694 14.8655 13.744C13.8492 13.6195 12.8951 14.2639 12.6174 15.2629H10.878C10.6168 14.356 9.79701 13.7324 8.86503 13.7324C7.93306 13.7324 7.11331 14.356 6.85206 15.2629C6.5556 15.2438 6.31647 15.0096 6.28618 14.7098L6.09782 13.073H15.8671C16.736 13.068 17.4886 12.4627 17.6917 11.6065L18.9709 6.18551C19.0339 5.99534 18.9928 5.78523 18.8651 5.63242ZM14.6304 15.008C14.9678 14.9997 15.2765 15.1965 15.4149 15.5087C15.5533 15.8201 15.4944 16.1855 15.2651 16.4363C15.0358 16.6871 14.6803 16.7735 14.3634 16.6572C14.0465 16.5401 13.8295 16.242 13.8131 15.9007V15.7944C13.8352 15.3526 14.1947 15.0072 14.6304 15.008ZM8.86503 15.008C9.32036 15.0072 9.69216 15.3751 9.70362 15.8368C9.70362 16.1806 9.49971 16.4911 9.18604 16.6223C8.87238 16.7544 8.51206 16.6813 8.27209 16.438C8.03213 16.1947 7.96007 15.8293 8.09029 15.5112C8.21968 15.1932 8.52596 14.9864 8.86501 14.9864L8.86503 15.008ZM17.5655 6.67389L17.1675 8.3746H5.53194L5.32229 6.67389H17.5655ZM15.867 11.7977H5.93002L5.53194 8.3746H11.1342H17.1675L16.4755 11.3085C16.4149 11.5983 16.1593 11.8043 15.867 11.7977Z" fill="white"/>
</svg>