<svg xmlns="http://www.w3.org/2000/svg" width="20" height="20" viewBox="0 0 20 20" fill="none">
<path d="M9.99999 13.6C8.97667 13.6 7.99517 13.2205 7.27167 12.5455C6.54821 11.8705 6.14145 10.9547 6.14145 9.99991C6.14145 9.04512 6.54821 8.12939 7.27167 7.45435C7.99513 6.77935 8.97665 6.39984 9.99999 6.39984C11.0233 6.39984 12.0048 6.77935 12.7283 7.45435C13.4518 8.12935 13.8585 9.04512 13.8585 9.99991C13.8585 10.9547 13.4518 11.8704 12.7283 12.5455C12.0048 13.2205 11.0233 13.6 9.99999 13.6ZM9.99999 7.59993C8.9598 7.59993 8.0217 8.18494 7.62377 9.08118C7.22506 9.97819 7.44531 11.011 8.18083 11.6972C8.91636 12.3835 10.0233 12.589 10.9847 12.217C11.9453 11.8457 12.5723 10.9704 12.5723 9.99991C12.5723 9.36316 12.3014 8.75265 11.8191 8.30265C11.3367 7.85266 10.6824 7.59989 9.99995 7.59989L9.99999 7.59993Z" fill="#c597d4"/>
<path d="M10 16C5.20908 16 1.27341 10.5641 1.10611 10.33C0.96463 10.1297 0.96463 9.87026 1.10611 9.67C1.27331 9.43599 5.20908 4 10 4C14.7909 4 18.7266 9.43595 18.8939 9.67C19.0354 9.87026 19.0354 10.1297 18.8939 10.33C18.7267 10.564 14.7909 16 10 16ZM2.68095 9.69345C2.53172 9.87212 2.53173 10.1278 2.68096 10.3064C3.83132 11.6836 6.78975 14.8 10 14.8C13.2103 14.8 16.1687 11.6837 17.319 10.3065C17.4683 10.1278 17.4683 9.87212 17.319 9.69346C16.1687 8.31627 13.2103 5.19991 10 5.19991C6.78974 5.19991 3.83127 8.3162 2.68095 9.69345Z" fill="#c597d4"/>
</svg>