<svg xmlns="http://www.w3.org/2000/svg" width="20" height="20" viewBox="0 0 20 20" fill="none">
  <path d="M9.99999 12.8097C8.97667 12.8097 7.99517 12.4298 7.27167 11.7542C6.54821 11.0785 6.14145 10.1619 6.14145 9.20624C6.14145 8.25056 6.54821 7.33398 7.27167 6.65831C7.99513 5.98268 8.97665 5.60281 9.99999 5.60281C11.0233 5.60281 12.0048 5.98268 12.7283 6.65831C13.4518 7.33394 13.8585 8.25056 13.8585 9.20624C13.8585 10.1619 13.4518 11.0785 12.7283 11.7542C12.0048 12.4298 11.0233 12.8097 9.99999 12.8097ZM9.99999 6.80402C8.9598 6.80402 8.0217 7.38957 7.62377 8.28665C7.22506 9.1845 7.44531 10.2183 8.18083 10.9051C8.91636 11.592 10.0233 11.7977 10.9847 11.4253C11.9453 11.0537 12.5723 10.1777 12.5723 9.20624C12.5723 8.56889 12.3014 7.95781 11.8191 7.5074C11.3367 7.05699 10.6824 6.80398 9.99995 6.80398L9.99999 6.80402Z" fill="#c597d4"/>
  <path d="M10 15.2119C5.20908 15.2119 1.27341 9.77085 1.10611 9.53659C0.96463 9.33614 0.96463 9.07641 1.10611 8.87597C1.27331 8.64174 5.20908 3.20068 10 3.20068C14.7909 3.20068 18.7266 8.6417 18.8939 8.87597C19.0354 9.07641 19.0354 9.33614 18.8939 9.53659C18.7267 9.77082 14.7909 15.2119 10 15.2119ZM2.68057 8.8999C2.53154 9.0785 2.53155 9.33395 2.68058 9.51255C3.83067 10.8908 6.78939 14.0107 10 14.0107C13.2106 14.0107 16.1694 10.8909 17.3194 9.51256C17.4685 9.33395 17.4684 9.07851 17.3194 8.89991C16.1693 7.52166 13.2106 4.40172 10 4.40172C6.78939 4.40172 3.83062 7.52159 2.68057 8.8999Z" fill="#c597d4"/>
  <path d="M16.984 2.54885L2.7403 15.6021C2.48914 15.8367 2.48914 16.2166 2.74029 16.4511C2.99145 16.6857 3.39828 16.6857 3.64943 16.4511L17.8931 3.39788C18.1443 3.16333 18.1443 2.7834 17.8931 2.54885C17.642 2.3143 17.2351 2.3143 16.984 2.54885Z" fill="#c597d4"/>
</svg>